# xmcd
#
# Track frame offsets:
#	150
#	30582
#	47500
#	59442
#	74765
#	88187
#	113357
#	126222
#	141250
#
# Disc length: 2067 seconds
#
# Revision: 0
# Processed by: cddbd v1.4PL0 Copyright (c) Steve Scherf et al.
# Submitted via: dBpowerAMP V4.0
#
DISCID=7e081109
DTITLE=Ernestine Allen - Let It Roll
DYEAR=1900
DGENRE=Blues
TTITLE0=Let It Roll
TTITLE1=I Want a Little Boy
TTITLE2=Lullaby of Broadway
TTITLE3=Mean and Evil
TTITLE4=Love for Sale
TTITLE5=Miss Allen's Blues
TTITLE6=Baubles, Bangles and Beads
TTITLE7=The Man I Love
TTITLE8=Tea for Two
EXTD=
EXTT0=
EXTT1=
EXTT2=
EXTT3=
EXTT4=
EXTT5=
EXTT6=
EXTT7=
EXTT8=
PLAYORDER=
